<svg height="512pt" viewBox="0 0 512 512" width="512pt" xmlns="http://www.w3.org/2000/svg"><path d="m189.394531 155.320312v194.414063s26.382813-53.125 97.351563-53.125v-88.167969c-70.96875 0-97.351563-53.121094-97.351563-53.121094zm0 0" fill="#f5f5f5"/><path d="m354.097656 283.433594h26.15625c7.964844 0 14.421875-6.457032 14.421875-14.425782v-32.964843c0-7.964844-6.457031-14.421875-14.421875-14.421875h-26.15625zm0 0" fill="#ff5622"/><path d="m318.796875 375.429688h11.171875c6.171875 0 11.175781-5 11.175781-11.171876v-72.605468h-33.519531v72.605468c0 6.171876 5 11.171876 11.171875 11.171876zm0 0" fill="#42a5f5"/><path d="m167.121094 363.140625h17.875c4.320312 0 7.824218-3.5 7.824218-7.820313v-206.144531c0-4.320312-3.503906-7.820312-7.824218-7.820312h-17.875c-4.320313 0-7.820313 3.5-7.820313 7.820312v206.144531c0 4.320313 3.5 7.820313 7.820313 7.820313zm0 0" fill="#42a5f5"/><path d="m288.910156 308.390625h58.097656c9.257813 0 16.761719-7.503906 16.761719-16.757813v-78.210937c0-9.257813-7.503906-16.761719-16.761719-16.761719h-58.097656c-3.085937 0-5.589844 2.5-5.589844 5.585938v100.558594c0 3.085937 2.503907 5.585937 5.589844 5.585937zm0 0" fill="#ffca28"/><path d="m256 0c-141.382812 0-256 114.617188-256 256s114.617188 256 256 256 256-114.617188 256-256-114.617188-256-256-256zm0 58.183594c44.0625 0 84.828125 14.484375 117.742188 38.941406l-276.617188 276.617188c-24.457031-32.914063-38.941406-73.679688-38.941406-117.742188 0-109.070312 88.746094-197.816406 197.816406-197.816406zm0 395.632812c-44.0625 0-84.828125-14.488281-117.742188-38.941406l276.617188-276.617188c24.457031 32.914063 38.941406 73.679688 38.941406 117.742188 0 109.070312-88.746094 197.816406-197.816406 197.816406zm0 0" fill="#ff5622"/><g fill="#e8491d"><path d="m116.40625 405.804688c-4.820312 4.832031-3.953125 12.878906 1.785156 16.578124 30.84375 19.882813 67.558594 31.433594 106.902344 31.433594 5.210938 0 10.371094-.203125 15.480469-.601562-38.132813-2.957032-73.28125-16.765625-102.3125-38.339844l276.613281-276.617188c-.035156-.0625-.074219-.128906-.113281-.191406-5.875-9.941406-19.652344-11.507812-27.8125-3.335937zm0 0"/><path d="m256 0c-5.191406 0-10.339844.171875-15.453125.476562 134.183594 7.992188 240.546875 119.332032 240.546875 255.523438s-106.363281 247.53125-240.546875 255.523438c5.113281.304687 10.261719.476562 15.453125.476562 141.382812 0 256-114.617188 256-256s-114.617188-256-256-256zm0 0"/></g></svg>