<svg xmlns="http://www.w3.org/2000/svg" viewBox="0 0 512 512"><path d="M353.5 163.2V498a14 14 0 01-14.2 14.1h-278A14 14 0 0147 497.9V125.5a14 14 0 0114.2-14.1h240.3l51.9 51.8z" fill="#3f4a5a"/><path d="M464.9 51.8v334.7a14 14 0 01-14.2 14.1h-278a14 14 0 01-14.2-14.1V14A14 14 0 01172.7 0H413L465 51.8z" fill="#efefef"/><path d="M464.9 51.8h-37.7A14 14 0 01413 37.7V0L465 51.8z" fill="#cccbca"/><g fill="#3f4a5a"><path d="M210.4 115.3h202.7v15.9H210.4zM210.4 147h202.7v15.9H210.4z"/></g><path fill="#f67656" d="M210.4 51.8h101.3v15.9H210.4z"/><g fill="#3f4a5a"><path d="M210.4 83.6h202.7v15.9H210.4zM210.4 337.3h202.7v15.9H210.4zM210.4 305.5h202.7v15.9H210.4zM210.4 273.8h202.7v15.9H210.4zM210.4 242.1h202.7V258H210.4zM210.4 210.4h202.7v15.9H210.4zM210.4 178.7h202.7v15.9H210.4z"/></g><g fill="#cccbca"><path d="M62.6 62H47.1V43.9A43.6 43.6 0 0191.1 0h36v15.5h-36a28.2 28.2 0 00-28.5 28.4v18zM36.8 62l18 18L73 62zM449.4 450h15.5v18.1a43.6 43.6 0 01-44 43.9h-36v-15.5h36a28.2 28.2 0 0028.5-28.4v-18zM475.2 450l-18-18-18.1 18z"/></g></svg>