<svg xmlns="http://www.w3.org/2000/svg" viewBox="0 0 512 512"><path d="M457.1 72.4a186.8 186.8 0 00-132.4-55h-37.5A62.2 62.2 0 00224.8 80a62.2 62.2 0 01-62.5 62.5H125A124.5 124.5 0 000 267.3 124.5 124.5 0 00124.9 392h199.8c48 0 95.9-18.3 132.4-54.8 36.6-36.6 54.9-84.5 54.9-132.5S493.7 109 457.1 72.4zm-165 43.8a31.2 31.2 0 110-62.5 31.2 31.2 0 010 62.5z" fill="#3f4a5a"/><g fill="#fff"><path d="M475.8 204.8a31.2 31.2 0 11-62.5 0 31.2 31.2 0 0162.5 0zM430 299a31.2 31.2 0 11-62.4.1 31.2 31.2 0 0162.4 0zM327.6 324.7a31.2 31.2 0 11-62.4 0 31.2 31.2 0 0162.4 0zM219.3 324.7a31.2 31.2 0 11-62.4 0 31.2 31.2 0 0162.4 0zM115.5 307.9a31.2 31.2 0 11-62.5 0 31.2 31.2 0 0162.5 0z"/></g><g fill="#f8c963"><path d="M109.3 466.5L190 485V436l-80.8 18.4zM510.3 456.1a6.3 6.3 0 00-4.3-2l-303-18V485l303-18a6.4 6.4 0 006-6.4c0-1.6-.6-3.2-1.7-4.4z"/></g><g fill="#3f4a5a"><path d="M190.1 436.1h12.8v48.7h-12.8zM129 460.5A34 34 0 0185.1 493c-20.8-6.7-50.7-27.4-84.3-31.7a.8.8 0 01-.8-.8c0-.5.3-.8.8-.8 33.6-4.3 63.5-25 84.3-31.7a34.1 34.1 0 0144 32.5z"/></g></svg>