<svg viewBox="0 0 800 800" xmlns="http://www.w3.org/2000/svg"><g stroke="null"><path fill="#00598E" d="M568.79 156.686c-39.565-24.634-76.89-34.338-114.213-58.972-23.14-15.676-55.24-53-82.114-85.1-5.225 51.508-20.902 72.41-38.817 87.34-38.07 29.86-61.96 38.817-94.804 56.733-27.62 14.183-177.664 103.76-177.664 296.355s161.988 334.426 341.89 334.426 335.92-130.635 335.92-328.454-146.31-287.398-170.2-302.328z"/><path fill="#FFF" d="M508.158 620.172c11.943 0 24.634.747 33.59 6.72s14.185 19.407 17.17 26.872 0 11.944-5.97 14.93c-5.227 2.986-5.973 1.493-11.2-8.21s-9.703-19.41-35.83-19.41-34.338 8.958-47.03 19.41-17.168 14.182-21.647 8.21-2.985-11.944 5.227-19.41 21.648-19.407 34.338-24.633 19.41-4.478 31.353-4.478zM384.24 705.272c14.93 11.944 37.325 21.648 85.1 21.648s81.367-13.437 96.297-24.634c6.718-5.225 9.704-.747 10.45 2.24s2.24 7.464-2.985 12.69c-3.733 3.732-38.07 27.62-78.38 31.352s-94.805 5.972-127.65-23.887c-5.226-5.225-3.733-12.69 0-15.676s6.718-5.225 11.197-5.225 3.73 0 5.97 1.492z"/><path fill="#0073BA" d="M201.35 648.54c56.734-.748 67.185-10.452 117.2-32.847 270.228-120.93 320.243-231.41 329.947-256.79s23.888-66.438 8.958-111.974c-2.882-8.792-4.983-15.85-6.5-21.53-35.91-40.154-71.56-62.065-82.332-68.796-38.817-24.634-76.888-34.34-114.213-58.973-23.14-14.928-55.24-53-82.113-85.098-5.226 51.508-20.155 73.156-38.817 87.34-38.07 29.858-61.96 38.816-94.804 56.732-27.62 14.93-177.664 103.762-177.664 296.355 0 61.49 16.515 117.806 44.852 165.984l7.402-.265c15.676 14.183 40.31 30.605 88.085 29.86z"/><path fill="#004975" d="M568.623 156.604c-38.817-24.634-76.888-34.34-114.213-58.973-23.14-14.928-55.24-53-82.113-85.098-5.226 51.508-20.155 73.156-38.817 87.34-38.07 29.858-61.96 38.816-94.804 56.732-27.62 14.93-177.664 103.762-177.664 296.355 0 61.49 16.515 117.806 44.852 165.984 60.415 102.718 174.575 168.44 297.04 168.44 179.902 0 335.918-130.634 335.918-328.453 0-108.634-44.124-184.618-87.866-233.53-35.91-40.154-71.564-62.065-82.333-68.796zm90.737 87.386c49.01 61.275 73.863 133.592 73.863 214.94 0 47.207-8.99 91.8-26.723 132.542-16.82 38.65-41.043 72.89-71.994 101.775-61.182 57.096-143.432 88.54-231.603 88.54-43.62 0-86.425-8.332-127.225-24.766-40.075-16.14-76.19-39.252-107.338-68.695C102.738 626.32 66.61 542.733 66.61 452.96c0-79.96 25.954-151.01 77.14-211.174 39.105-45.964 81.273-71.438 97.588-80.256 7.92-4.32 15.35-8.134 22.537-11.822 22.524-11.56 43.8-22.48 73.06-45.43 15.604-11.86 32.226-30.642 39.304-78.334 24.657 29.328 53.27 62.286 75.136 76.392 19.408 12.81 39.316 21.786 58.568 30.467 18.212 8.21 37.045 16.702 55.68 28.53.03.02.7.435.7.435 54.474 34.012 83.498 70.297 93.036 82.222z"/><path fill="#93C5E4" d="M376.03 27.462c10.45 30.606 8.957 46.282 8.957 53s-3.732 24.634-15.676 33.592c-5.224 3.733-6.717 6.72-6.717 7.465 0 2.985 6.718 5.224 6.718 11.943 0 8.21-3.732 24.634-43.295 64.198s-96.297 74.65-140.34 96.298-64.944 20.155-70.916 9.704 2.238-33.592 29.858-64.198 114.96-74.65 114.96-74.65l108.986-76.14 5.972-29.113"/><path fill="#FFF" d="M376.03 26.715c-6.72 49.268-21.65 64.198-41.804 79.874-33.592 25.38-66.437 41.056-73.902 44.788-19.41 9.705-89.58 48.522-126.156 104.51-11.198 17.168 0 23.886 2.24 25.38s27.62 4.478 82.113-28.367 78.382-52.253 108.988-84.352c16.422-17.17 18.662-26.874 18.662-31.353 0-5.225-3.733-7.465-9.704-8.958-2.986-.746-3.733-2.24 0-4.48s19.408-9.703 23.14-12.69 21.65-14.93 22.395-34.337-.745-32.846-5.97-50.015zM208.07 569.41c.746-58.225 55.24-112.718 123.917-113.465 87.34-.746 147.804 86.593 191.847 85.846 37.324-.745 108.987-73.9 144.072-73.9 37.324 0 47.775 38.816 47.775 61.957s-7.464 64.945-25.38 91.072-29.113 35.83-50.014 34.337c-26.874-2.24-80.62-85.846-114.96-87.34-43.296-1.492-137.353 90.326-211.255 90.326-44.788 0-58.225-6.718-73.155-16.423-22.394-15.676-33.592-39.563-32.845-72.41z"/><path fill="none" d="M657.455 246.93c14.93 45.535.746 86.59-8.958 111.972s-59.72 135.86-329.947 256.79c-50.015 22.396-60.466 32.1-117.2 32.847-47.774.745-72.408-15.677-88.084-29.86l-7.402.264c60.415 102.718 174.575 168.44 297.04 168.44 179.902 0 335.918-130.634 335.918-328.453 0-108.634-44.124-184.618-87.866-233.53 1.516 5.68 3.617 12.738 6.5 21.53z"/></g></svg>