<svg xmlns="http://www.w3.org/2000/svg" viewBox="0 0 512 512"><g fill="#20262d"><path d="M217.8 339.5l-24.2 116.3L160 306l57.8-33.6zM294.2 339.5l24.2 116.3L352 306l-57.8-33.6z"/></g><path d="M256 0c-35.1 35.1-59.3 129.6-56.2 235 .8 39 11 99 24.2 122.5h63.2c13.3-24.2 23.4-84.3 24.2-122.6C315.4 129.6 291.1 35.1 256 0z" fill="#dadada"/><path d="M256 112.4V78h-39c-12.5 43.8-18.8 98.4-17.2 157 .8 26.5 5.5 64 13.3 92H256V160c-13.3 0-23.4-11-23.4-23.4a23.7 23.7 0 0123.4-24.2z" fill="#efefef"/><g fill="#fcc153"><path d="M256 363.7c-12.5 0-22.6 10.1-22.6 46 0 18 4.7 51.6 22.6 102.3 18-50.7 22.6-84.3 22.6-102.2 0-36-10.1-46.1-22.6-46.1zM213 327a119 119 0 0011.8 31.2H288c4-7 7.8-18 11.7-31.2h-86.6zM256 0c-15.6 15.6-28.9 43-39 78h78C285 43 271.6 15.6 256 0z"/></g><circle cx="256" cy="136.6" r="23.4" fill="#20262d"/></svg>