<svg xmlns="http://www.w3.org/2000/svg" viewBox="0 0 512 512"><g fill="#d9d8d7"><path d="M243.5 95.3h9.6v34.9h-9.6z"/><path d="M248.3 100.1a15 15 0 110-30.1 15 15 0 010 30.1zm0-20.4a5.4 5.4 0 100 10.8 5.4 5.4 0 000-10.8zM210.6 130.2h-9.7v-23.6l-15.5-15.5v-53h9.7v49l15.5 15.6z"/><path d="M190.3 43a15 15 0 110-30.1 15 15 0 010 30.1zm0-20.5c-3 0-5.5 2.5-5.5 5.5a5.4 5.4 0 105.5-5.5zM158.4 75.6h9.6v54.5h-9.6z"/><path d="M163.2 80.5a15 15 0 110-30.1 15 15 0 010 30zm0-20.5a5.4 5.4 0 100 10.8 5.4 5.4 0 000-10.8zM125.5 130.2h-9.7V77.4L85.5 47.2l6.8-6.9 33.2 33.1z"/><path d="M82 51.8a15 15 0 110-30 15 15 0 010 30zm0-20.4a5.4 5.4 0 100 10.8 5.4 5.4 0 000-10.8zM83.8 130.2h-9.6V99.6L60.8 86.3l6.8-6.9 16.2 16.2z"/><path d="M57 90.6a15 15 0 110-30 15 15 0 010 30zm0-20.4A5.4 5.4 0 0057 81a5.4 5.4 0 100-10.8zM381 130.2h-9.7v-27.8l24.6-20.8V46.3h9.7v39.8l-24.7 20.8z"/><path d="M400.7 51.1a15 15 0 110-30.1 15 15 0 010 30.1zm0-20.5a5.4 5.4 0 100 10.9 5.4 5.4 0 000-10.9zM338.3 130.2h-9.6V101l30.5-30.5 6.8 6.8-27.7 27.7z"/><path d="M369.9 81.7a15 15 0 110-30.1 15 15 0 010 30.1zm0-20.4a5.4 5.4 0 100 10.8 5.4 5.4 0 000-10.8zM295.6 130.2H286V74.7l-32.2-32.2 6.8-6.8 35 35z"/><path d="M250 47a15 15 0 110-30.2 15 15 0 010 30.1zm0-20.5a5.4 5.4 0 100 10.8 5.4 5.4 0 000-10.8zM243.5 381.8h9.6v34.9h-9.6z"/><path d="M248.3 442a15 15 0 110-30.2 15 15 0 010 30.2zm0-20.5a5.4 5.4 0 100 10.8 5.4 5.4 0 000-10.8zM195 473.8h-9.6v-53l15.5-15.4v-23.6h9.7v27.5L195 424.8z"/><path d="M190.3 499a15 15 0 110-30 15 15 0 010 30zm0-20.4a5.4 5.4 0 100 10.8 5.4 5.4 0 000-10.8zM158.4 381.8h9.6v54.5h-9.6z"/><path d="M163.2 461.6a15 15 0 110-30 15 15 0 010 30zm0-20.4a5.4 5.4 0 100 10.8 5.4 5.4 0 000-10.8zM92.3 471.7l-6.8-6.9 30.3-30.2v-52.8h9.7v56.8z"/><path d="M82 490.3a15 15 0 110-30.1 15 15 0 010 30zm0-20.5a5.4 5.4 0 100 10.8 5.4 5.4 0 000-10.8zM67.6 432.6l-6.8-6.9 13.4-13.3v-30.6h9.6v34.6z"/><path d="M57 451.5a15 15 0 110-30.2 15 15 0 010 30.2zm0-20.5a5.4 5.4 0 100 10.8 5.4 5.4 0 000-10.8zM405.6 465.7h-9.7v-35.3l-24.6-20.8v-27.8h9.6v23.3l24.7 20.8z"/><path d="M400.7 491a15 15 0 110-30.1 15 15 0 010 30zm0-20.5a5.4 5.4 0 100 10.9 5.4 5.4 0 000-10.9zM359.2 441.5L328.7 411v-29.2h9.6V407l27.7 27.7z"/><path d="M369.9 460.4a15 15 0 110-30.2 15 15 0 010 30.2zm0-20.5c-3 0-5.4 2.5-5.4 5.4a5.4 5.4 0 105.4-5.4zM260.6 476.3l-6.8-6.8 32.2-32.2v-55.5h9.6v59.5z"/><path d="M250 495.2a15 15 0 110-30.1 15 15 0 010 30zm0-20.5a5.4 5.4 0 100 10.9 5.4 5.4 0 000-10.9z"/></g><path d="M460.4 135.5a17.9 17.9 0 00-12.8-5.3H18.1a18 18 0 00-18.1 18v215.6a18 18 0 0018 18h429.6a18 18 0 0012.8-5.3l46.3-46.3a18 18 0 005.3-12.8V194.6a18 18 0 00-5.3-12.8l-46.3-46.3zm-5.3 138a17.5 17.5 0 110-35 17.5 17.5 0 010 35z" fill="#f67656"/><path fill="#fff" d="M70 174.7h315.1v162.6H70z"/><g fill="#cccbca"><path d="M100.6 286.4h126.9v20.3H100.6zM100.6 245.9h253.9v20.3H100.6z"/></g><path fill="#3f4a5a" d="M100.6 205.3h253.9v20.3H100.6z"/></svg>