<svg viewBox="0 0 800 800" xmlns="http://www.w3.org/2000/svg"><g stroke="null"><path fill="#E9E9E0" d="M522.504 18.238H126.81c-11.018 0-19.948 8.93-19.948 26.26v723.63c0 4.703 8.93 13.634 19.947 13.634h546.38c11.018 0 19.948-8.93 19.948-13.635V195.185c0-9.49-1.268-12.544-3.504-14.793l-158.65-158.65c-2.25-2.236-5.303-3.504-8.48-3.504z" stroke-width="13.63434"/><path fill="#D9D7CA" d="M529.526 20.297V181.85H691.08z" stroke-width="13.63434"/><path fill="#EC6630" d="M673.19 781.762H126.81c-11.018 0-19.948-8.93-19.948-19.948V549.978h586.276v211.836c0 11.017-8.93 19.948-19.947 19.948z" stroke-width="13.63434"/><g fill="#FFF"><path d="M256.226 603.48v137.378h-22.374v-61.886h-59.46v61.886H151.65v-137.38h22.742v60.21h59.46v-60.21h22.374zM387.824 603.48v15.283h-40.998v122.095h-22.55V618.763h-41.013V603.48h104.56zM518.687 603.48h22.742v137.378h-22.743v-94.513l-30.76 76.42h-19.755l-30.95-76.42v94.513H414.48v-137.38h22.742l40.82 93.955 40.645-93.954zM598.652 603.48v120.417h63.195v16.96H575.91V603.48h22.742z" stroke-width="13.63434"/></g><g fill="#EC6630"><path d="M334.65 240.383c-5.33-5.33-13.947-5.33-19.278 0l-81.806 81.806c-5.33 5.33-5.33 13.947 0 19.278l81.806 81.806c2.658 2.66 6.15 3.995 9.64 3.995s6.98-1.337 9.64-3.996c5.33-5.33 5.33-13.948 0-19.28l-72.168-72.166 72.167-72.166c5.332-5.33 5.332-13.948 0-19.28zM580.07 322.19l-81.807-81.807c-5.33-5.33-13.948-5.33-19.28 0s-5.33 13.948 0 19.28l72.167 72.165-72.166 72.167c-5.33 5.33-5.33 13.948 0 19.28 2.658 2.658 6.15 3.994 9.64 3.994s6.98-1.337 9.64-3.996l81.805-81.806c5.33-5.33 5.33-13.948 0-19.28z" stroke-width="13.63434"/></g></g></svg>