<svg viewBox="0 0 844 167" xmlns="http://www.w3.org/2000/svg"><style>.st0{fill:#29333d}</style><path class="st0" d="M197.7 123.6V35.1h5.6v83.4h38.1v5l-43.7.1zM262.5 56.9a4.7 4.7 0 11-.01-9.39 4.7 4.7 0 01.01 9.39zm-2.6 66.8V68.6h5.1v55.1h-5.1zM333.7 115.1c-5 6.2-12.6 9.9-20.6 10.1-13.1 0-26.8-10.3-26.8-28.7 0-19.2 14.6-29.3 30-29.3 11.2 0 19.4 4.6 22.6 7.6V127c0 20.9-13.1 27.1-25.4 27.1-7.6 0-15-2.2-21.3-6.3l2.7-4.2c5.7 3.7 12.3 5.6 19.1 5.6 8.1 0 19.8-2.8 19.8-22.4l-.1-11.7zm0-38c-5.3-3.4-11.4-5.1-17.7-5-12.4-.1-24.3 8-24.3 24.4 0 10.8 6.8 23.8 22.9 23.8 6.5 0 15.3-5 19.1-11.6V77.1zM402.7 123.7V90c0-12.8-4.9-17.7-16.5-17.7-6.8.1-13.3 2.9-18.1 7.7v43.6H363V27.8h5.1v46.8a28 28 0 0119-7.4c13.2 0 20.8 6.4 20.8 20.7v35.8h-5.2zM434.6 123.7V73.5h-10.2v-4.8h10.2v-20h5.1v20H453v4.8h-13.4v50.2h-5zM520.8 126.4l-15.2-33.8-15.3 33.8H485l-24.4-61.8h14.6l12.5 32.1c.5 1.5 1 2.9 1.4 4.4.5-1.6 1-3.2 1.6-4.7l13.7-30h2.3l13.8 30.2c.6 1.4 1.1 2.9 1.5 4.3.4-1.5.9-3 1.5-4.4 4.1-10.8 8.9-22.6 12.4-31.9h14.5l-24.3 61.8h-5.3zM559.7 45.6c0-4.9 4-8.8 8.8-8.8 4.9 0 8.8 4 8.8 8.8s-4 8.8-8.8 8.8c-4.9 0-8.8-4-8.8-8.8zm1.8 78.1V64.6h13.8v59.1h-13.8zM635.3 27.8h13.8v90.3c-7.8 4.9-16.7 7.4-25.9 7.4-16.6 0-32.5-10.4-32.5-30.5 0-18.9 12.8-31.9 30.9-31.9 4.7 0 9.8 1.2 13.7 4V27.8zm0 52c-2.8-3.2-8.3-5.3-13.3-5.3-10.2 0-16.7 8.3-16.7 20.5 0 11.5 8.4 19.1 18 19.1 3.6 0 8.2-.6 12-3V79.8zM707.5 118.4c-4.3 4.3-10 6.8-16 7-14 0-27.7-11.8-27.7-31.2-.1-20.3 15.3-31.2 32.4-31.2 12.2 0 19.5 3 25 6.1v57.4c0 22.4-14.7 28.9-28.4 28.9-12.8 0-22.1-4.2-26.7-7.1l5.7-10.5c3 2.3 11 6.2 20.6 6.2 8 0 15-3.7 15-15.6l.1-10zm0-41.6c-3.4-1.6-7.1-2.4-10.8-2.5-9.6 0-18.5 5.7-18.5 19.9 0 8.4 4.8 19.7 15.8 19.7 5.4.1 10.5-2.6 13.5-7.1v-30zM793.6 117.6c-3.2 2.8-12.4 7.8-24.9 7.8-19.5 0-32.6-12.2-32.6-30.9 0-18.3 12.4-31.6 30.9-31.6 19.2 0 28.8 14.3 28.8 30.6v5.7h-45.4c.7 7.8 7.6 14.8 20.6 14.8 6.6.1 13.1-2.1 18.3-6.2l4.3 9.8zm-12.3-29.3c-.3-7.7-5.5-14.4-14.6-14.4-8.1 0-15.2 5.2-16.3 14.4h30.9zM815.7 123.7V76h-11.1V64.7h11.1V44.5h13.8v20.2H844V76h-14.5v47.7h-13.8z"/><path fill="#e7ecef" d="M.04 124L43.01.26l123.76 42.97-42.97 123.76z"/><path fill="#ffab00" d="M145.9 27.1L138.1 145l-117.8-7.8"/><path fill="#ffc31f" d="M20.3 137.2L28 19.3l117.9 7.8"/></svg>