<svg xmlns="http://www.w3.org/2000/svg" viewBox="0 0 512 512"><path d="M274.2 72.5a46 46 0 11-91.9 0 46 46 0 0191.9 0z" fill="#e6e5e5"/><g fill="#3f4a5a"><path d="M223.6 0h9.2v18.3h-9.2zM197.2 27.9L188 12l8-4.6 9.1 15.9zM179 49.4l-16-9.2 4.7-8 16 9.2zM155.7 68h18.4v9.2h-18.4zM167.6 112.8l-4.6-8 16-9.2 4.6 8zM288.7 112.8l-15.8-9.1 4.6-8 15.8 9.2zM282.4 67.9h18.4v9.2h-18.4zM277.5 49.4l-4.6-8 15.9-9.2 4.6 8zM259.3 27.9l-8-4.6 9.2-15.9 8 4.6z"/></g><g fill="#fad97f"><path d="M394.4 151.2a24.8 24.8 0 00-42.3 17.6 24.8 24.8 0 10-49.6 0 24.7 24.7 0 10-49.5 0V72.5a24.7 24.7 0 00-24.8-24.7 24.7 24.7 0 00-24.8 24.7v284.8h198.2V168.8c0-6.4-2.4-12.7-7.2-17.6z"/><path d="M228.2 380c-13.7 0-24.8-11-24.8-24.8a75.4 75.4 0 00-75.2-75.2 24.8 24.8 0 010-49.6A125 125 0 01253 355.2c0 13.7-11 24.8-24.8 24.8z"/></g><path d="M394 512a14.5 14.5 0 0014.6-14.5V369.7a14.5 14.5 0 00-14.5-14.5H211a14.5 14.5 0 00-14.5 14.5v127.8A14.4 14.4 0 00211 512h183z" fill="#3f4a5a"/><path d="M371.2 383.5a11.5 11.5 0 110 23 11.5 11.5 0 010-23z" fill="#fff"/></svg>