<svg xmlns="http://www.w3.org/2000/svg" viewBox="0 0 512 512"><path d="M464 332H0V60a32 32 0 0132-32h400a31.9 31.9 0 0132 32v272z" fill="#2d2829"/><path d="M464 364a32 32 0 01-32 32H32a31.9 31.9 0 01-32-32v-32h464v32z" fill="#dfe3e6"/><path fill="#cfd3d6" d="M160 396h144v72H160z"/><path fill="#dfe3e6" d="M136 468h192v16H136z"/><path fill="#fff" d="M32 60h400v240H32z"/><path fill="#f4608a" d="M48 76h368v208H48z"/><g fill="#fff"><path d="M144 228h-16v-80c0-4.3-1.7-8.3-4.7-11.3-6-6-16.6-6-22.6 0-3 3-4.7 7-4.7 11.3v80H80v-80c0-8.5 3.3-16.6 9.4-22.6a32.7 32.7 0 0145.2 0c6 6 9.4 14 9.4 22.6v80z"/><path d="M88 172h48v16H88zM160 116h16v112h-16z"/><path d="M192 188h-24v-16h24a15.9 15.9 0 0016-16v-8a15.9 15.9 0 00-16-16h-24v-16h24a31.8 31.8 0 0132 32v8a31.8 31.8 0 01-32 32zM256 124h16v96h-16z"/><path d="M240 116h48v16h-48zM240 212h48v16h-48zM304 116h16v16h-16zM336 116h16v16h-16zM368 116h16v16h-16z"/></g><path d="M512 204a24 24 0 00-24-24H328a24 24 0 00-24 24v256a24 24 0 0024 24h160a24 24 0 0024-24V204z" fill="#474545"/><path fill="#fff" d="M320 228h176v208H320z"/><g fill="#5e5c5c"><path d="M400 196h16v16h-16zM424 468h-32a8 8 0 110-16h32a8 8 0 110 16z"/></g><g fill="#474545"><path d="M445.7 361.7l-11.4-11.4 18.4-18.3-18.4-18.3 11.4-11.4 29.6 29.7zM370.3 361.7L340.7 332l29.6-29.7 11.4 11.4-18.4 18.3 18.4 18.3zM424 285.3l-16 96-15.8-2.7 16-96z"/></g></svg>