<svg xmlns="http://www.w3.org/2000/svg" width="512" height="512" viewBox="0 0 200 200"><path fill="#FF8E31" d="M190.5 49.8v-9.3l-6.9-2.4c-.3-2-.9-4-1.6-6l4.8-5.5-4.7-8-7 1.3a40.1 40.1 0 00-4.6-4.4l1.5-7.1-8.1-4.7-5.5 4.8c-2-.7-4-1.3-6-1.7L150 0h-9.3l-2.4 6.8c-2 .4-4 1-6 1.7l-5.5-4.8-8 4.7 1.3 7a39.8 39.8 0 00-4.4 4.6l-7.1-1.5-4.7 8.1 4.8 5.5c-.7 2-1.3 4-1.6 6l-6.9 2.4v9.3l6.9 2.4c.3 2 .9 4 1.6 6l-4.8 5.5 4.7 8 7-1.3a39.7 39.7 0 004.6 4.4l-1.5 7.1 8.1 4.7 5.5-4.8c2 .7 4 1.3 6 1.6l2.4 6.9h9.3l2.4-6.9c2-.3 4-.9 6-1.6l5.5 4.8 8-4.7-1.3-7a38.4 38.4 0 004.4-4.6l7.1 1.5 4.7-8.1-4.8-5.5c.7-2 1.3-4 1.6-6l7-2.4zm-45.1 14.5a19.2 19.2 0 110-38.3 19.2 19.2 0 010 38.3z"/><path fill="#FF9D4D" d="M145.4 21.3a23.8 23.8 0 100 47.7 23.8 23.8 0 000-47.7zm0 42.1a18.3 18.3 0 110-36.5 18.3 18.3 0 010 36.5z"/><g><path fill="#BCD4E8" d="M139.4 141.7v-13.4l-9.8-3.4c-.6-3-1.4-5.9-2.3-8.7l6.8-7.9-6.7-11.6-10.3 2a71 71 0 00-6.4-6.4l2-10.2-11.6-6.7-7.8 6.8c-2.8-1-5.7-1.7-8.7-2.3L81.2 70H67.7l-3.3 9.8c-3 .6-6 1.3-8.8 2.3l-7.8-6.8L36.2 82l2 10.2a52.2 52.2 0 00-6.5 6.5l-10.2-2-6.7 11.5 6.9 7.9c-1 2.8-1.8 5.8-2.4 8.7l-9.8 3.4v13.4l9.8 3.4c.6 3 1.4 6 2.4 8.7l-6.9 7.9 6.7 11.6 10.3-2a62.2 62.2 0 006.4 6.4l-2 10.2 11.6 6.8 7.8-6.9a57 57 0 008.8 2.3l3.3 9.9h13.5l3.4-9.9c3-.5 5.9-1.3 8.7-2.3l7.8 6.9 11.7-6.8-2-10.2a70.6 70.6 0 006.3-6.4l10.3 2 6.7-11.6-6.8-7.9c1-2.8 1.7-5.7 2.3-8.7l9.8-3.4zm-65 12.2a18.9 18.9 0 110-37.8 18.9 18.9 0 010 37.8z"/><path fill="#FF9D4D" d="M74.5 106.3a28.7 28.7 0 100 57.4 28.7 28.7 0 000-57.4zm0 43.9a15.2 15.2 0 110-30.4 15.2 15.2 0 010 30.4z"/><path fill="#F28124" d="M74.5 97.7a37.4 37.4 0 100 74.7 37.4 37.4 0 000-74.7zm0 58.8a21.5 21.5 0 110-43 21.5 21.5 0 010 43z"/></g></svg>