<svg xmlns="http://www.w3.org/2000/svg" viewBox="0 0 512 512"><path fill="#e1effa" d="M341.8 441.1h-120l15.3-74.1h89.5z"/><path fill="#b6d4ed" d="M341.8 441.1L326.6 367H237l74.1 74.1z"/><path fill="#e1effa" d="M189.7 441.1h184.1v9H189.7z"/><path d="M62.9 62c-6.1 0-11.2 5-11.2 11.1v282.7c0 6.1 5 11.2 11.2 11.2h437.9c6.1 0 11.2-5 11.2-11.2V73c0-6.1-5-11.2-11.2-11.2H62.9z" fill="#34495e"/><path fill="#fff" d="M75 85.1h413.7v258.6H75z"/><path fill="#ff8e31" d="M92.2 99.6h114.5v34.3H92.2z"/><g fill="#e1effa"><path d="M224.6 99.6h249.6v34.3H224.6zM89.5 293.2h384.8v11.3H89.5zM89.5 317.9h384.8v11.3H89.5z"/></g><g fill="#d0e070"><path d="M89.5 214.5H204v65.3H89.5zM224.6 214.5h114.5v65.3H224.6zM359.8 214.5h114.5v65.3H359.8z"/></g><path fill="#b8d1e6" d="M89.5 147.3h384.8V201H89.5z"/><path d="M286.2 367H63c-6.1 0-11.2-5-11.2-11.3V204.1H75v139.6h188l23.2 23.3z" fill="#2e445c"/><path d="M263 343.7H75V204.1h39.5a21 21 0 0115.7 7l3.5 3.4H89.5v65.3H199l13.4 13.4h-123v11.4h134.4l13.4 13.3H89.5v11.3h159l14.4 14.5z" fill="#e1effa"/><path fill="#b8d26e" d="M199 279.8H89.5v-65.3h44.2z"/><g fill="#c7e0f4"><path d="M223.8 304.6H89.5v-11.4h122.9zM248.4 329.2h-159V318h147.8z"/></g><path d="M16.8 450C7.6 450 0 442.6 0 433.4V225.7c0-9.2 7.6-16.8 16.8-16.8h97.6c9.3 0 16.8 7.6 16.8 16.8v207.6c0 9.2-7.5 16.8-16.8 16.8H16.8z" fill="#34495e"/><g fill="#283a4d"><path d="M80.2 432.7a4 4 0 01-4 4H55a4 4 0 01-4-4V431a4 4 0 014-4h21a4 4 0 014 4v1.7zM70.5 227.1c0 2.7-2.2 4.9-4.9 4.9a4.8 4.8 0 114.9-4.9z"/></g><path d="M67.9 227.1c0 1.3-1 2.3-2.3 2.3-1.2 0-2.3-1-2.3-2.3 0-1.3 1-2.3 2.3-2.3 1.3 0 2.3 1 2.3 2.3z" fill="#5d6d7e"/><path fill="#fff" d="M9.5 245.4h112.2v168.3H9.5z"/><path fill="#ff8e31" d="M18.2 254h95v14.5h-95z"/><g fill="#e1effa"><path d="M18.2 389.8h95v4.8h-95zM18.2 400.3h95v4.8h-95z"/></g><path fill="#d0e070" d="M18.2 309.7h95v74.4h-95z"/><path fill="#b8d1e6" d="M18.2 274.1h95V304h-95z"/></svg>