<svg viewBox="0 0 800 800" xmlns="http://www.w3.org/2000/svg"><g stroke="null"><path fill="#95BF46" d="M564.4 373.594c-.2-1.46-1.478-2.27-2.536-2.357-1.054-.09-23.383-1.744-23.383-1.744s-15.506-15.395-17.207-17.098c-1.704-1.704-5.03-1.186-6.32-.805-.19.056-3.388 1.043-8.678 2.68-5.18-14.906-14.322-28.605-30.406-28.605-.444 0-.9.02-1.36.044-4.573-6.05-10.24-8.677-15.133-8.677-37.464 0-55.363 46.834-60.976 70.635-14.556 4.51-24.9 7.717-26.22 8.133-8.125 2.55-8.382 2.806-9.45 10.462-.804 5.797-22.066 170.227-22.066 170.227l165.678 31.04 89.77-19.42s-31.512-213.055-31.71-214.516zm-67.283-16.492c-4.16 1.288-8.89 2.75-14.018 4.338.004-.987.008-1.96.008-3.022 0-9.265-1.286-16.723-3.348-22.637 8.286 1.042 13.805 10.47 17.357 21.322zm-27.637-19.484c2.303 5.774 3.8 14.058 3.8 25.24 0 .57-.003 1.093-.008 1.623-9.118 2.824-19.024 5.89-28.954 8.967 5.575-21.517 16.026-31.908 25.162-35.83zm-11.132-10.536c1.617 0 3.246.548 4.805 1.62-12.006 5.65-24.877 19.882-30.312 48.3-7.942 2.458-15.706 4.862-22.885 7.086 6.366-21.675 21.484-57.006 48.393-57.006z" transform="matrix(2.56375 0 0 2.52143 -800.833 -765.61)"/><path fill="#5E8E3E" d="M561.864 371.237c-1.054-.09-23.383-1.744-23.383-1.744s-15.506-15.395-17.207-17.098c-.637-.635-1.496-.96-2.394-1.1L506.35 607.53l89.76-19.418s-31.512-213.055-31.71-214.516c-.202-1.46-1.48-2.27-2.538-2.357" transform="matrix(2.56375 0 0 2.52143 -800.833 -765.61)"/><path fill="#FFF" d="M475.87 420.838l-11.07 32.926s-9.698-5.176-21.585-5.176c-17.428 0-18.306 10.938-18.306 13.694 0 15.038 39.2 20.8 39.2 56.024 0 27.712-17.577 45.557-41.278 45.557-28.44 0-42.983-17.7-42.983-17.7l7.614-25.16s14.95 12.836 27.565 12.836c8.24 0 11.595-6.49 11.595-11.233 0-19.617-32.16-20.492-32.16-52.724 0-27.13 19.47-53.383 58.777-53.383 15.146 0 22.627 4.338 22.627 4.338" transform="matrix(2.56375 0 0 2.52143 -800.833 -765.61)"/></g></svg>