<svg xmlns="http://www.w3.org/2000/svg" viewBox="0 0 512 512"><path d="M264 88h-16V72a8 8 0 00-8-8h-48a23.8 23.8 0 01-24-24 23.8 23.8 0 0124-24h96a8 8 0 008-8V0h16v8a23.9 23.9 0 01-24 24h-96a8 8 0 00-8 8 8 8 0 008 8h48a23.8 23.8 0 0124 24v16z" fill="#cfd3d6"/><path d="M512 312H0V104a16 16 0 0116-16h480a16 16 0 0116 16v208z" fill="#dfe3e6"/><g fill="#fff"><path d="M24 160h32v32H24zM72 160h32v32H72zM120 160h32v32h-32zM168 160h32v32h-32zM216 160h32v32h-32zM264 160h32v32h-32zM312 160h32v32h-32zM360 160h32v32h-32zM24 256h80v32H24zM120 256h32v32h-32zM168 256h176v32H168zM408 256h32v32h-32zM360 256h32v32h-32zM456 160h32v32h-32zM408 160h32v32h-32zM24 208h32v32H24zM72 208h32v32H72zM120 208h32v32h-32zM168 208h32v32h-32zM216 208h32v32h-32zM264 208h32v32h-32zM312 208h32v32h-32zM360 208h32v32h-32zM408 208h80v32h-80zM456 256h32v32h-32zM24 112h64v32H24zM104 112h32v32h-32zM152 112h32v32h-32zM200 112h32v32h-32zM248 112h32v32h-32zM296 112h32v32h-32zM344 112h32v32h-32zM392 112h96v32h-96z"/></g><path d="M0 312a16 16 0 0016 16h480a16 16 0 0016-16H0z" fill="#cfd3d6"/><path d="M451.3 252.7a16 16 0 00-22.6 0A16 16 0 00424 264v-16a16 16 0 00-16-16 16 16 0 00-16 16v-16a16 16 0 00-16-16 16 16 0 00-16 16v16a16 16 0 00-16-16 16 16 0 00-16 16v70h-.2a15.9 15.9 0 00-15.8-14 16 16 0 00-16 16v40.2c0 31.8 40 71.8 40 71.8v24h96v-24l24-64V264a16 16 0 00-4.7-11.3z" fill="#ffdc73"/><g fill="#ffcb59"><path d="M355.3 236.7A16 16 0 00344 232v72a16 16 0 0016-16v-40a16 16 0 00-4.7-11.3zM387.3 220.7A16 16 0 00376 216v88a16 16 0 0016-16v-56a16 16 0 00-4.7-11.3zM419.3 236.7A16 16 0 00408 232v72a16 16 0 0016-16v-40a16 16 0 00-4.7-11.3zM451.3 252.7A16 16 0 00440 248v56a16 16 0 0016-16v-24a16 16 0 00-4.7-11.3zM323.3 308.7A16 16 0 00312 304v40a16 16 0 0016 16v-40a16 16 0 00-4.7-11.3z"/></g><path fill="#49b2d6" d="M320 448h128v64H320z"/><path fill="#474545" d="M336 464h16v16h-16z"/><path d="M60.7 252.7a16 16 0 0122.6 0A16 16 0 0188 264v-16a16 16 0 0116-16 16 16 0 0116 16v-16a16 16 0 0116-16 16 16 0 0116 16v16a16 16 0 0116-16 16 16 0 0116 16v70h.2a15.9 15.9 0 0115.8-14 16 16 0 0116 16v40.2c0 31.8-40 71.8-40 71.8v24H80v-24l-24-64V264a16 16 0 014.7-11.3z" fill="#ffdc73"/><g fill="#ffcb59"><path d="M156.7 236.7A16 16 0 01168 232v72a16 16 0 01-16-16v-40a16 16 0 014.7-11.3zM124.7 220.7A16 16 0 01136 216v88a16 16 0 01-16-16v-56a16 16 0 014.7-11.3zM92.7 236.7A16 16 0 01104 232v72a16 16 0 01-16-16v-40a16 16 0 014.7-11.3zM60.7 252.7A16 16 0 0172 248v56a16 16 0 01-16-16v-24a16 16 0 014.7-11.3zM188.7 308.7A16 16 0 01200 304v40a16 16 0 01-16 16v-40a16 16 0 014.7-11.3z"/></g><path fill="#49b2d6" d="M64 448h128v64H64z"/><path fill="#474545" d="M160 464h16v16h-16z"/></svg>