<svg xmlns="http://www.w3.org/2000/svg" viewBox="0 0 374.6 374.6"><g fill="#c4c4c4"><path d="M81.6 13.4h44.3V0h109.5a104 104 0 0071 28v7.8h-98.2v-9h-140l13.4-13.4zM81.6 111.5h44.3v13.4h109.5a104 104 0 0171-28v-7.8h-98.2v9h-140l13.4 13.4z"/></g><path fill="#efefef" d="M139.4 0h41.9v374.6h-41.9z"/><g fill="#32373c"><path d="M172 35.8h9.2v1.1H172zM172 51.1h9.2v1.1H172zM172 66.4h9.2v1.1H172zM172 81.7h9.2v1.1H172zM172 97h9.2v1.1H172zM172 112.3h9.2v1.1H172zM172 127.6h9.2v1.1H172zM172 142.9h9.2v1.1H172zM172 158.2h9.2v1.1H172zM172 173.4h9.2v1.1H172zM172 188.7h9.2v1.1H172zM172 204h9.2v1.1H172zM172 219.3h9.2v1.1H172zM172 234.6h9.2v1.1H172zM172 249.9h9.2v1.1H172zM172 265.2h9.2v1.1H172zM176.6 43.7h4.6v.6h-4.6zM176.6 59h4.6v.6h-4.6zM176.6 74.3h4.6v.6h-4.6zM176.6 89.6h4.6v.6h-4.6zM176.6 104.9h4.6v.6h-4.6zM176.6 120.1h4.6v.6h-4.6zM176.6 135.4h4.6v.6h-4.6zM176.6 150.7h4.6v.6h-4.6zM176.6 166h4.6v.6h-4.6zM176.6 181.3h4.6v.6h-4.6zM176.6 196.6h4.6v.6h-4.6zM176.6 211.9h4.6v.6h-4.6zM176.6 227.2h4.6v.6h-4.6zM176.6 242.5h4.6v.6h-4.6zM176.6 257.8h4.6v.6h-4.6z"/></g><path fill="#c4c4c4" d="M125.9 98h16.4v121.4h-16.4z"/><path fill="#efefef" d="M121 155.5h5v19.9h-5z"/><path fill="#c4c4c4" d="M178.3 98h16.4v121.4h-16.4z"/><g fill="#32373c"><path d="M178.3 112.3h9.2v1.1h-9.2zM178.3 127.6h9.2v1.1h-9.2zM178.3 142.8h9.2v1.1h-9.2zM178.3 158.2h9.2v1.1h-9.2zM178.3 173.4h9.2v1.1h-9.2zM178.3 188.7h9.2v1.1h-9.2zM178.3 204h9.2v1.1h-9.2zM178.3 120.1h4.6v.6h-4.6zM178.3 135.4h4.6v.6h-4.6zM178.3 150.7h4.6v.6h-4.6zM178.3 166h4.6v.6h-4.6zM178.3 181.3h4.6v.6h-4.6zM178.3 196.6h4.6v.6h-4.6z"/></g><path d="M306.5 62.5a26.6 26.6 0 11-53.3 0 26.6 26.6 0 0153.3 0z" fill="#fa7564"/></svg>