<svg xmlns="http://www.w3.org/2000/svg" viewBox="0 0 512 512"><path d="M461.3 203.9c-2.5-2.7-6-4-9.5-4H70.3a13.4 13.4 0 00-13.5 13.5v235.8h408.5V213.4c0-3.4-1.3-6.9-4-9.5z" fill="#353f49"/><path d="M266.8 210.3a5.7 5.7 0 11-11.5 0c0-3.2 2.6-5.7 5.8-5.7 3.1 0 5.7 2.5 5.7 5.7z" fill="#474f59"/><g fill="#fff"><path d="M263.5 210.3a2.5 2.5 0 01-5 0c0-1.3 1.2-2.4 2.6-2.4 1.3 0 2.4 1.1 2.4 2.4zM78.1 220.7h366v228.5h-366z"/></g><path fill="#f77b55" d="M97.4 277.2h151.8v85.4H97.4z"/><path fill="#fff" d="M160.3 304.8l26 15-26 15.2z"/><path fill="#353f49" d="M272.1 277.2h62.5v35.2h-62.5z"/><path fill="#cccbca" d="M298 288.6l10.8 6.2L298 301z"/><path fill="#353f49" d="M272.1 327.4h62.5v35.2h-62.5z"/><path fill="#cccbca" d="M298 338.8l10.8 6.2-10.7 6.2z"/><path fill="#353f49" d="M272.1 377.7h62.5v35.2h-62.5z"/><path fill="#cccbca" d="M298 389l10.8 6.3-10.7 6.1z"/><g fill="#d9d8d7"><path d="M347.4 297.7h77.3v4.4h-77.3zM347.4 308h77.3v4.4h-77.3zM347.4 287.5h77.3v4.4h-77.3zM347.4 277.2h44v4.4h-44zM131.1 398.2h118.2v4.4H131.1zM131.1 408.4h59.1v4.4h-59.1zM131.1 387.9h118.2v4.4H131.1zM97.4 377.7h67.3v4.4H97.4zM347.4 347.9h77.3v4.4h-77.3zM347.4 358.2h77.3v4.4h-77.3zM347.4 337.7h77.3v4.4h-77.3zM347.4 327.4h44v4.4h-44zM347.4 398.2h77.3v4.4h-77.3zM347.4 408.4h77.3v4.4h-77.3zM347.4 387.9h77.3v4.4h-77.3zM347.4 377.7h44v4.4h-44z"/></g><path fill="#f77b55" d="M97.4 241.2h327.3V259H97.4z"/><path fill="#fff" d="M102.6 247.8H261v4.4H102.6z"/><path d="M10.1 457c19 8.4 40.2 13 62.4 13h377c22.3 0 43.4-4.6 62.5-13H10.1z" fill="#cccbca"/><path fill="#f2f2f2" d="M10.1 449.2H512v7.8H10.1z"/><path fill="#cccbca" d="M217.5 449.2h87.1v3.9h-87.1z"/><path fill="#f77b55" d="M91.6 42v91.5h110L225 157v-23.5h11.4V42z"/><g fill="#fff"><path d="M119.4 84.6h89.3v6.3h-89.3zM164.1 99.2h44.6v6.2h-44.6zM119.4 70h89.3v6.2h-89.3z"/></g><path fill="#d9d8d7" d="M314.3 167.9l-29.8 9.9 10-29.8z"/><path fill="#474f59" d="M355 87.6l19.8 19.9-60.5 60.4-19.8-19.9z"/><path fill="#353f49" d="M296.2 173.9l-11.7 3.9 3.9-11.7z"/><path fill="#d9d8d7" d="M358.3 84.3L378 104l-3.3 3.4-19.9-20z"/><path d="M378 104.1l-19.8-19.9a14 14 0 1119.9 20z" fill="#474f59"/><g fill="#353f49"><path d="M472.3 103.2c-13 0-23.6 10.6-23.6 23.6h11.4a12.2 12.2 0 1117.5 11c-6.8 3.3-11 10-11 17.5v4.3H478v-4.3c0-3 1.8-5.9 4.5-7.3a23.6 23.6 0 00-10.2-44.8zM466.6 165.1h11.3v11.4h-11.3z"/></g><path d="M92 215.2a46 46 0 11-92 0 46 46 0 0192 0z" fill="#76d0de"/><g fill="#fff"><path d="M50.2 230h-8.4l-2.5-43.5h13.4zM41.8 235.4h8.4v8.5h-8.4z"/></g></svg>