<svg xmlns="http://www.w3.org/2000/svg" viewBox="0 0 512 512"><path fill="#f2f2f2" d="M0 51.2h512V512H0z"/><path fill="#91d3d9" d="M0 0h512v25.6H0z"/><path fill="#e6e5e5" d="M0 25.6h512v25.6H0z"/><path fill="#fff" d="M44.4 33.3h423.3v10.2H44.4z"/><path fill="#f68360" d="M0 12.8h44.4v12.8H0z"/><path fill="#e6e5e5" d="M44.4 12.8h105.8v12.8H44.4z"/><path fill="#d9d8d7" d="M150.2 12.8H256v12.8H150.2z"/><g fill="#cccbca"><path d="M25.2 33.3h10.2v10.2H25.2zM8.9 33.3h10.2v10.2H8.9zM492.9 33.3h10.2v10.2h-10.2zM476.5 33.3h10.2v10.2h-10.2z"/></g><path fill="#fff" d="M25.2 51.2h461.5V512H25.2z"/><path fill="#656a73" d="M25.2 96h461.5v104.6H25.2z"/><path fill="#ffc86d" d="M233.8 120.1h33.9v7.3h-33.9z"/><g fill="#fff"><path d="M233.8 134h67.8v3.2h-67.8zM233.8 143.8h67.8v3.2h-67.8zM233.8 153.6h67.8v3.2h-67.8zM233.8 163.5h67.8v3.2h-67.8zM233.8 173.3h33.9v3.2h-33.9z"/></g><path fill="#ffc86d" d="M316.8 120.1h33.9v7.3h-33.9z"/><g fill="#fff"><path d="M316.8 134h67.8v3.2h-67.8zM316.8 143.8h67.8v3.2h-67.8zM316.8 153.6h67.8v3.2h-67.8zM316.8 163.5h67.8v3.2h-67.8zM316.8 173.3h33.9v3.2h-33.9z"/></g><path fill="#ffc86d" d="M399.8 120.1h33.9v7.3h-33.9z"/><g fill="#fff"><path d="M399.8 134h67.8v3.2h-67.8zM399.8 143.8h67.8v3.2h-67.8zM399.8 153.6h67.8v3.2h-67.8zM399.8 163.5h67.8v3.2h-67.8zM399.8 173.3h33.9v3.2h-33.9z"/></g><path fill="#474f59" d="M25.2 51.2h461.5V96H25.2z"/><path fill="#fff" d="M44.4 82.9h111.2v3.8H44.4z"/><path fill="#ffc86d" d="M44.4 60.5h111.2v15.2H44.4z"/><g fill="#fff"><path d="M290.8 82.9h43.5v3.8h-43.5zM357.5 82.9H401v3.8h-43.5zM424.1 82.9h43.5v3.8h-43.5z"/></g><path fill="#e6e5e5" d="M25.2 215.7h130.3v94.8H25.2z"/><g fill="#656a73"><path d="M45.3 238.1h71.5v3.8H45.3zM45.3 249.7h90.2v3.8H45.3zM45.3 261.2h90.2v3.8H45.3zM45.3 272.8h90.2v3.8H45.3zM45.3 284.4h45.8v3.8H45.3z"/></g><path fill="#e6e5e5" d="M25.2 325.7h130.3v94.8H25.2z"/><g fill="#656a73"><path d="M45.3 348h71.5v3.8H45.3zM45.3 359.6h90.2v3.8H45.3zM45.3 371.2h90.2v3.8H45.3zM45.3 382.8h90.2v3.8H45.3zM45.3 394.4h45.8v3.8H45.3z"/></g><g fill="#ffc86d"><path d="M25.2 310.5h130.3v15.2H25.2zM25.2 200.6h130.3v15.2H25.2zM25.2 420.5h130.3V512H25.2z"/></g><g fill="#fff"><path d="M45.3 441.2h90.2v3.8H45.3zM45.3 452.8h90.2v3.8H45.3zM45.3 464.4h90.2v3.8H45.3zM45.3 475.9h90.2v3.8H45.3zM45.3 487.5h45.8v3.8H45.3z"/></g><path fill="#e6e5e5" d="M179 224.1h58.8v47.3H179z"/><path fill="#656a73" d="M179 277.4h58.8v2.1H179z"/><g fill="#cccbca"><path d="M179 283.6h58.8v2.1H179zM179 289.8h30.3v2.1H179z"/></g><path fill="#ffc86d" d="M254.2 224.1H313v47.3h-58.8z"/><path fill="#656a73" d="M254.2 277.4H313v2.1h-58.8z"/><g fill="#cccbca"><path d="M254.2 283.6H313v2.1h-58.8zM254.2 289.8h30.3v2.1h-30.3z"/></g><path fill="#e6e5e5" d="M329.4 224.1h58.8v47.3h-58.8z"/><path fill="#656a73" d="M329.4 277.4h58.8v2.1h-58.8z"/><g fill="#cccbca"><path d="M329.4 283.6h58.8v2.1h-58.8zM329.4 289.8h30.3v2.1h-30.3z"/></g><path fill="#e6e5e5" d="M404.6 224.1h58.8v47.3h-58.8z"/><path fill="#656a73" d="M404.6 277.4h58.8v2.1h-58.8z"/><g fill="#cccbca"><path d="M404.6 283.6h58.8v2.1h-58.8zM404.6 289.8h30.3v2.1h-30.3z"/></g><path fill="#e6e5e5" d="M179 307.3h58.8v47.3H179z"/><path fill="#656a73" d="M179 360.6h58.8v2.1H179z"/><g fill="#cccbca"><path d="M179 366.8h58.8v2.1H179zM179 373h30.3v2.1H179z"/></g><path fill="#e6e5e5" d="M254.2 307.3H313v47.3h-58.8z"/><path fill="#656a73" d="M254.2 360.6H313v2.1h-58.8z"/><g fill="#cccbca"><path d="M254.2 366.8H313v2.1h-58.8zM254.2 373h30.3v2.1h-30.3z"/></g><path fill="#e6e5e5" d="M329.4 307.3h58.8v47.3h-58.8z"/><path fill="#656a73" d="M329.4 360.6h58.8v2.1h-58.8z"/><g fill="#cccbca"><path d="M329.4 366.8h58.8v2.1h-58.8zM329.4 373h30.3v2.1h-30.3z"/></g><path fill="#e6e5e5" d="M404.6 307.3h58.8v47.3h-58.8z"/><path fill="#656a73" d="M404.6 360.6h58.8v2.1h-58.8z"/><g fill="#cccbca"><path d="M404.6 366.8h58.8v2.1h-58.8zM404.6 373h30.3v2.1h-30.3z"/></g><path fill="#e6e5e5" d="M179 390.5h58.8v47.3H179z"/><path fill="#656a73" d="M179 443.8h58.8v2.1H179z"/><g fill="#cccbca"><path d="M179 450h58.8v2.1H179zM179 456.2h30.3v2.1H179z"/></g><path fill="#e6e5e5" d="M254.2 390.5H313v47.3h-58.8z"/><path fill="#656a73" d="M254.2 443.8H313v2.1h-58.8z"/><g fill="#cccbca"><path d="M254.2 450H313v2.1h-58.8zM254.2 456.2h30.3v2.1h-30.3z"/></g></svg>