<svg xmlns="http://www.w3.org/2000/svg" viewBox="0 0 512 512"><path fill="#e6eaee" d="M256.9 512l-126.3-72.9V293.3l126.3 72.9z"/><path fill="#cdd3da" d="M256.9 220.4l-126.3 72.9 126.3 72.9L383 293.3z"/><path fill="#aab5bd" d="M256.9 512L383 439.1V293.3L257 366.2z"/><path fill="#ff7059" d="M383.1 293.3L257 220.4V74.6L383 147.5z"/><path fill="#34495e" d="M383.1 1.7L257 74.6 383 147.5l126.3-72.9z"/><path fill="#4bd6c0" d="M383.1 293.3l126.3-72.9V74.6L383 147.5z"/><g fill="#34495e"><path d="M130.6 295c-.3 0-.6 0-.9-.2l-126.2-73c-.6-.2-.9-.8-.9-1.4V74.6a1.7 1.7 0 012.6-1.5l126.2 73c.6.2.9.8.9 1.4v145.8a1.7 1.7 0 01-1.7 1.7zM6 219.4l122.9 71v-142L6 77.6v142z"/><path d="M130.6 149.2c-.3 0-.6 0-.9-.2L3.5 76c-.6-.2-.9-.8-.9-1.4 0-.6.3-1.2.9-1.5L129.7.2c.6-.3 1.2-.3 1.7 0l126.3 73c.5.2.9.8.9 1.4 0 .6-.4 1.2-.9 1.5L131.4 149l-.8.2zM7.7 74.6l122.9 71 122.9-71-122.9-71-122.9 71zM256.9 222.1c-.3 0-.6 0-.9-.2l-8.8-5.1a1.7 1.7 0 01-.7-2.4c.5-.8 1.6-1 2.4-.6l8.8 5.1c.8.5 1.1 1.5.6 2.3-.3.6-.9.9-1.4.9zM232.5 208c-.3 0-.6 0-.8-.2l-15.6-9a1.7 1.7 0 01-.6-2.3c.5-.8 1.5-1 2.3-.6l15.6 9c.8.4 1 1.5.6 2.3-.3.5-1 .8-1.5.8zm-31-17.9c-.3 0-.6 0-.9-.2l-15.5-9c-.8-.4-1-1.5-.6-2.3.5-.8 1.5-1 2.3-.6l15.5 9c.8.4 1.1 1.5.6 2.3-.3.5-.8.8-1.4.8zm-31-17.9c-.3 0-.6 0-.9-.2l-15.5-9a1.7 1.7 0 01-.6-2.3c.4-.8 1.5-1 2.3-.6l15.5 9a1.7 1.7 0 01-.8 3.1z"/><path d="M139.4 154.3c-.3 0-.6 0-.8-.2l-8-4.6-8 4.6c-.8.4-1.9.2-2.3-.7-.5-.8-.2-1.8.6-2.3l8.8-5c.6-.4 1.2-.4 1.7 0l8.9 5a1.7 1.7 0 01-.9 3.2zM28.7 208a1.7 1.7 0 01-.9-3.1l15.5-9c.9-.5 1.9-.2 2.4.6.4.8.2 1.9-.7 2.4l-15.5 9-.8.1zm31-17.9a1.7 1.7 0 01-.9-3.1l15.6-9c.8-.5 1.8-.2 2.3.6.5.8.2 1.9-.6 2.3l-15.6 9c-.2.2-.5.2-.8.2zm31-17.9c-.6 0-1.1-.3-1.4-.8-.5-.8-.2-1.9.6-2.4l15.5-9c.8-.4 1.8-.1 2.3.7.5.8.2 1.9-.6 2.3l-15.5 9-.9.2zM4.3 222.1c-.6 0-1.1-.3-1.4-.9-.5-.8-.2-1.8.6-2.3l8.8-5a1.7 1.7 0 111.7 2.9l-8.8 5-.9.3z"/><path d="M130.6 295c-.3 0-.6 0-.9-.2-.5-.3-.8-.9-.8-1.5V147.5c0-.6.3-1.2.8-1.5L256 73.1a1.7 1.7 0 012.6 1.5v145.8c0 .6-.4 1.2-.9 1.5l-126.3 72.9-.8.2zm1.7-146.5v141.9l122.8-71V77.5l-122.8 71zM130.6 13.6c-1 0-1.7-.8-1.7-1.7V1.7a1.7 1.7 0 113.4 0v10.2c0 1-.8 1.7-1.7 1.7zM130.6 121c-1 0-1.7-.7-1.7-1.6v-18c0-.9.8-1.6 1.7-1.6 1 0 1.7.7 1.7 1.7v17.9c0 1-.8 1.7-1.7 1.7zm0-35.7c-1 0-1.7-.8-1.7-1.7v-18c0-.9.8-1.7 1.7-1.7 1 0 1.7.8 1.7 1.7v18c0 .9-.8 1.7-1.7 1.7zm0-35.9c-1 0-1.7-.7-1.7-1.7V29.8a1.7 1.7 0 113.4 0v18c0 .9-.8 1.6-1.7 1.6z"/><path d="M130.6 149.2c-1 0-1.7-.8-1.7-1.7v-10.2a1.7 1.7 0 113.4 0v10.2c0 1-.8 1.7-1.7 1.7z"/></g></svg>