<svg viewBox="0 0 800 800" xmlns="http://www.w3.org/2000/svg"><title>Layer 1</title><path d="M-5599.644-11102.733c1435.527 0 2742.597 550.106 3722.38 1450.767-480.228-12.886-959.464 272.575-979.288 926.258-40.39 1321.492 1580.19 1602.987 706.96 4261.087l-722.323 2198.685-1967.246-5794.938c-30.48-89.702 4.955-140.748 115.224-140.748h556.176c28.918 0 52.533-24.68 52.533-54.912v-329.42c0-30.205-23.69-56.15-52.533-54.886-1053.253 46.065-2100.312 46.363-3141.052 0-28.992-1.24-52.532 24.78-52.532 55.01v329.42c0 30.18 23.64 54.91 52.532 54.91h559.224c124.394 0 159.234 41.457 188.548 121.62l808.308 2210.58-1215.93 3671.58-1998.717-5887.117c-24.78-73.843 5.204-116.712 76.322-116.712h637.205c28.893 0 52.532-24.68 52.532-54.886v-329.42c0-30.23-23.715-56.422-52.533-54.91-668.552 35.51-1339.655 42.67-1964.793 49.088 980.996-1511.155 2683.126-2511.157 4618.655-2511.157v-.025l.346.124zM-759.71-8220.13C-336.845-7441.04-96.73-6548.407-96.73-5599.946c0 2081.604-1156.585 3893.358-2861.787 4828.538l1716.23-4861c265.885-752.305 512.69-1769.01 482.458-2587.724h.123zM-3757.286-413.59C-4333.41-208.666-4953.394-96.91-5599.644-96.91c-556.796 0-1094.016-83.01-1600.51-236.643l1695.29-4858.273L-3757.31-413.343l.025-.248zM-7954.442-625.21c-1860.967-882.572-3148.238-2778.528-3148.238-4974.49 0-814.056 177.074-1586.83 494.475-2282.094L-7954.318-625.11l-.124-.098zm2354.624-10993.93c3323.677 0 6019.193 2695.516 6019.193 6019.193S-2276.14 419.248-5599.818 419.248s-6019.193-2695.516-6019.193-6019.193 2695.515-6019.193 6019.192-6019.193zm0-380.465c3533.808 0 6399.807 2866 6399.807 6399.807S-2066.01 800.01-5599.82 800.01s-6399.806-2866-6399.806-6399.806 2866-6399.807 6399.806-6399.807z" fill="#464342"/><path d="M5655.515 6227.76c-67.2 0-130.7-12.9-190.4-38.6-59.7-25.8-111.6-60.9-155.7-105.3-44.1-44.4-79-96.5-104.7-156.2-25.7-59.8-38.6-123.3-38.6-190.5s12.9-130.7 38.6-190.4 60.7-111.6 104.7-155.7c44.1-44.1 95.9-79 155.7-104.7 59.8-25.7 123.2-38.6 190.4-38.6s130.7 12.9 190.4 38.6c59.7 25.8 111.8 60.7 156.2 104.7 44.4 44.1 79.5 95.9 105.3 155.7 25.8 59.7 38.6 123.2 38.6 190.4s-12.9 130.7-38.6 190.4c-25.8 59.7-60.9 111.8-105.3 156.2-44.4 44.4-96.5 79.5-156.2 105.3-59.7 25.8-123.2 38.7-190.4 38.7zm0-945.3c-62.7 0-121.7 11.9-177 35.8s-103.6 56.4-145 97.4c-41.4 41.1-74.1 89.2-98 144.5-23.9 55.3-35.8 114.2-35.8 177 0 62.7 11.9 121.7 35.8 177 23.9 55.2 56.6 103.6 98 145 41.4 41.4 89.8 74.1 145 98 55.3 23.9 114.2 35.8 177 35.8 62.7 0 121.7-11.9 177-35.8 55.2-23.9 103.6-56.6 145-98 41.4-41.4 74.1-89.8 98-145 23.9-55.3 35.8-114.2 35.8-177 0-62.7-11.9-121.7-35.8-177s-56.6-103.4-98-144.5c-41.4-41.1-89.8-73.5-145-97.4-55.3-23.8-114.2-35.8-177-35.8zm-117.6 855.7c18.7 5.2 37.9 9.3 57.7 12.3 19.8 3 39.8 4.5 59.9 4.5 47 0 93.3-8.2 138.9-24.6l-131-352.8-125.5 360.6zm-96.3-637.3c4.5 0 8.6 1.5 12.3 4.5 3.7 3 6 6.7 6.7 11.2 1.5 10.5-3.7 16.4-15.7 17.9-8.2 1.5-16.1 2.4-23.5 2.8-7.5.4-15.3.9-23.5 1.7l152.3 449.1 91.8-271-66.1-177c-14.2-1.5-25.2-2.8-33-3.9-7.8-1.1-12.1-1.7-12.9-1.7-4.5-.7-8.2-3-11.2-6.7s-3.7-7.8-2.2-12.3c.7-4.5 3-8.2 6.7-11.2s7.8-3.7 12.3-2.2l15.7 2.2s14.7 1.1 44.2 3.4c29.5 2.2 52.5 2.2 68.9 0 16.4-2.2 46.7-4.5 90.7-6.7 4.5 0 8.6 1.5 12.3 4.5 3.7 3 6 6.7 6.7 11.2 1.5 10.5-3.7 16.4-15.7 17.9-8.2 1.5-16.1 2.4-23.5 2.8-7.5.4-14.9.9-22.4 1.7l151.2 449.1c11.9-40.3 21.8-73.9 29.7-100.8 7.8-26.9 14.4-48.9 19.6-66.1 6-19.4 10.5-35.1 13.4-47 8.2-26.9 11.4-52.8 9.5-77.8-1.9-25-8-46.1-18.5-63.3-4.5-9-11-20.2-19.6-33.6s-16.2-27.8-23-43.1c-6.7-15.3-11.2-30.6-13.4-45.9-2.2-15.3 0-29.3 6.7-42 9.7-17.2 20.5-28.2 32.5-33 11.9-4.9 24.3-6.5 37-5-37.3-34.3-80.1-61.2-128.2-80.6-48.2-19.4-99.5-29.1-154-29.1-73.2 0-140.2 17-201 51-60.9 34-109.9 79.3-147.3 136.1 17.9.7 38.1.7 60.5 0 22.5-1.1 47.1-3.3 74-7.1zm-202.7 236.3c0 41.1 5.6 80.6 16.8 118.7 11.2 38.1 27.3 73.4 48.2 105.8 20.9 32.5 45.7 61.6 74.5 87.4 28.7 25.8 60.7 46.9 95.8 63.3l-200.6-542c-23.1 53-34.7 108.6-34.7 166.8zm833.3 0c0-70.2-16.1-135.1-48.2-194.9 1.5 8.2 2.2 16.2 2.2 24.1s-.4 15.9-1.1 24.1c-4.5 40.3-12.3 76.9-23.5 109.8-11.2 32.9-22 64.2-32.5 94.1-4.5 12.7-11.6 33.6-21.3 62.7-9.7 29.1-20.2 59.5-31.4 91.3-11.2 31.7-21.7 61.8-31.4 90.2-9.7 28.4-16.8 48.5-21.3 60.5 31.4-17.9 59.7-39.8 85.1-65.5 25.4-25.8 47.2-54.1 65.5-85.1 18.3-31 32.5-64.2 42.6-99.7 10.2-35.6 15.3-72.7 15.3-111.6z" transform="matrix(.73853 0 0 .73372 -3777.154 -3809.915)" stroke="null"/></svg>