<svg width="30" height="30" viewBox="0 0 30 30" fill="none" xmlns="http://www.w3.org/2000/svg">
<path d="M30 15.1672C30 7.21632 23.2843 0.770874 15 0.770874C6.71573 0.770874 0 7.21632 0 15.1672C0 23.118 6.71573 29.5635 15 29.5635C23.2843 29.5635 30 23.118 30 15.1672Z" fill="white"/>
<path d="M12.0007 15.6471C12.0007 13.9687 13.3435 12.6076 15.0004 12.6076C16.6572 12.6076 18.0007 13.9687 18.0007 15.6471C18.0007 17.3255 16.6572 18.6866 15.0004 18.6866C13.3435 18.6866 12.0007 17.3255 12.0007 15.6471ZM10.3788 15.6471C10.3788 18.2329 12.4479 20.3289 15.0004 20.3289C17.5529 20.3289 19.6219 18.2329 19.6219 15.6471C19.6219 13.0613 17.5529 10.9653 15.0004 10.9653C12.4479 10.9653 10.3788 13.0613 10.3788 15.6471ZM18.7248 10.7797C18.7248 10.996 18.788 11.2076 18.9066 11.3876C19.0253 11.5675 19.1939 11.7078 19.3912 11.7907C19.5885 11.8737 19.8057 11.8954 20.0152 11.8533C20.2247 11.8111 20.4172 11.707 20.5683 11.554C20.7194 11.4011 20.8223 11.2062 20.8641 10.994C20.9059 10.7817 20.8846 10.5617 20.8029 10.3618C20.7212 10.1618 20.5829 9.99091 20.4053 9.87062C20.2277 9.75033 20.019 9.68602 19.8054 9.68596H19.8049C19.5185 9.68608 19.244 9.80133 19.0415 10.0064C18.839 10.2115 18.7251 10.4896 18.7248 10.7797ZM11.3642 23.0686C10.4867 23.0282 10.0098 22.8801 9.69279 22.755C9.27259 22.5893 8.97276 22.3919 8.65757 22.073C8.34231 21.7541 8.14719 21.4507 7.98434 21.025C7.86079 20.7041 7.71463 20.2208 7.67473 19.3318C7.63111 18.3707 7.62234 18.082 7.62234 15.6472C7.62234 13.2123 7.63183 12.9244 7.67473 11.9625C7.71469 11.0736 7.86193 10.5912 7.98434 10.2694C8.14791 9.84363 8.34273 9.53995 8.65757 9.22059C8.97234 8.90123 9.27187 8.70356 9.69279 8.53859C10.0096 8.41343 10.4867 8.26536 11.3642 8.22494C12.3129 8.18075 12.5979 8.17194 15.0004 8.17194C17.4028 8.17194 17.6881 8.18148 18.6376 8.22494C19.5151 8.26542 19.9912 8.41459 20.309 8.53859C20.7292 8.70356 21.029 8.90172 21.3442 9.22059C21.6595 9.53947 21.8539 9.84363 22.0175 10.2694C22.141 10.5903 22.2872 11.0736 22.3271 11.9625C22.3707 12.9244 22.3795 13.2123 22.3795 15.6472C22.3795 18.082 22.3707 18.3699 22.3271 19.3318C22.2871 20.2208 22.1402 20.7039 22.0175 21.025C21.8539 21.4507 21.6591 21.7544 21.3442 22.073C21.0295 22.3916 20.7292 22.5893 20.309 22.755C19.9922 22.8802 19.5151 23.0283 18.6376 23.0686C17.6889 23.1129 17.4039 23.1217 15.0004 23.1217C12.5968 23.1217 12.3126 23.1129 11.3642 23.0686ZM11.2897 6.58464C10.3316 6.62884 9.67683 6.78274 9.10506 7.00813C8.5129 7.2409 8.01164 7.55315 7.51068 8.05979C7.00978 8.56643 6.70233 9.07507 6.47256 9.67496C6.25007 10.2545 6.09814 10.9175 6.05451 11.8881C6.01015 12.8602 6 13.171 6 15.6471C6 18.1232 6.01015 18.4339 6.05451 19.4061C6.09814 20.3769 6.25007 21.0397 6.47256 21.6192C6.70233 22.2188 7.00984 22.7279 7.51068 23.2344C8.01152 23.7408 8.5129 24.0526 9.10506 24.286C9.67791 24.5114 10.3316 24.6653 11.2897 24.7096C12.2499 24.7538 12.5562 24.7648 15.0004 24.7648C17.4446 24.7648 17.7513 24.7545 18.711 24.7096C19.6693 24.6653 20.3235 24.5114 20.8957 24.286C21.4875 24.0526 21.9891 23.741 22.49 23.2344C22.9909 22.7278 23.2977 22.2188 23.5281 21.6192C23.7506 21.0397 23.9033 20.3767 23.9462 19.4061C23.9899 18.4332 24 18.1232 24 15.6471C24 13.171 23.9899 12.8602 23.9462 11.8881C23.9026 10.9173 23.7506 10.2542 23.5281 9.67496C23.2977 9.07544 22.9902 8.56728 22.49 8.05979C21.9899 7.55236 21.4875 7.2409 20.8964 7.00813C20.3235 6.78274 19.6691 6.62811 18.7117 6.58464C17.7521 6.54043 17.4453 6.52942 15.0011 6.52942C12.5569 6.52942 12.2499 6.5397 11.2897 6.58464Z" fill="#1C3339"/>
</svg>
