<svg width="29" height="29" viewBox="0 0 29 29" fill="none" xmlns="http://www.w3.org/2000/svg">
<path d="M29 14.6471C29 6.9613 22.5081 0.730713 14.5 0.730713C6.49187 0.730713 0 6.9613 0 14.6471C0 22.3329 6.49187 28.5635 14.5 28.5635C22.5081 28.5635 29 22.3329 29 14.6471Z" fill="white"/>
<path d="M21.1647 20.7996C20.9051 21.2149 20.3512 21.3311 19.9185 21.0819C16.5091 19.0887 12.2342 18.6402 7.18054 19.7365C6.69594 19.8361 6.21133 19.5538 6.10748 19.0887C6.00364 18.6236 6.29785 18.1585 6.78245 18.0589C12.3034 16.8463 17.0456 17.3612 20.8531 19.6036C21.2858 19.8528 21.4243 20.3843 21.1647 20.7996ZM22.93 17.0124C22.6012 17.5273 21.9089 17.6768 21.3724 17.3778C17.4783 15.069 11.5419 14.4045 6.93821 15.75C6.33247 15.9161 5.70942 15.6005 5.53635 15.0358C5.36327 14.4543 5.69211 13.8564 6.29785 13.6903C11.5592 12.1621 18.1013 12.893 22.5839 15.534C23.0858 15.833 23.2589 16.4974 22.93 17.0124ZM23.0858 13.0591C18.4128 10.4014 10.7112 10.1523 6.24595 11.4479C5.53635 11.6638 4.77483 11.2818 4.54984 10.5841C4.32485 9.9031 4.74022 9.17221 5.4498 8.95627C10.5727 7.46136 19.0878 7.76033 24.4531 10.8167C25.0934 11.1821 25.3011 11.9794 24.9203 12.594C24.5569 13.2252 23.7261 13.4411 23.0858 13.0591Z" fill="#1C3339"/>
</svg>
