<svg width="30" height="30" viewBox="0 0 30 30" fill="none" xmlns="http://www.w3.org/2000/svg">
<path d="M30 15.1672C30 7.21632 23.2843 0.770874 15 0.770874C6.71573 0.770874 0 7.21632 0 15.1672C0 23.118 6.71573 29.5635 15 29.5635C23.2843 29.5635 30 23.118 30 15.1672Z" fill="white"/>
<path fill-rule="evenodd" clip-rule="evenodd" d="M22.7112 8.83438C23.5143 9.04186 24.1476 9.64963 24.3638 10.4204C24.7654 11.8286 24.7499 14.7636 24.7499 14.7636C24.7499 14.7636 24.7499 17.6838 24.3638 19.092C24.1476 19.8628 23.5143 20.4705 22.7112 20.678C21.2439 21.0486 15.3749 21.0486 15.3749 21.0486C15.3749 21.0486 9.52137 21.0486 8.03869 20.6632C7.23556 20.4557 6.60234 19.848 6.38612 19.0772C6 17.6838 6 14.7488 6 14.7488C6 14.7488 6 11.8286 6.38612 10.4204C6.60234 9.64963 7.251 9.02705 8.03869 8.8195C9.50594 8.44897 15.3749 8.44897 15.3749 8.44897C15.3749 8.44897 21.2439 8.44897 22.7112 8.83438ZM18.3867 14.7488L13.5061 17.4466V12.051L18.3867 14.7488Z" fill="#1C3339"/>
</svg>
